<?xml version="1.0" standalone="no"?>
<!DOCTYPE svg PUBLIC "-//W3C//DTD SVG 20010904//EN"
 "http://www.w3.org/TR/2001/REC-SVG-20010904/DTD/svg10.dtd">
<svg version="1.0" xmlns="http://www.w3.org/2000/svg"
 width="366.000000pt" height="366.000000pt" viewBox="0 0 366.000000 366.000000"
 preserveAspectRatio="xMidYMid meet">
<metadata>
Created by potrace 1.11, written by Peter Selinger 2001-2013
</metadata>
<g transform="translate(0.000000,366.000000) scale(0.100000,-0.100000)"
fill="#000000" stroke="none">
<path d="M3390 2950 c13 -24 12 -25 -7 -7 -23 20 -38 23 -27 5 5 -8 1 -8 -12
2 -10 8 -16 11 -12 6 4 -5 1 -15 -7 -22 -16 -16 -9 -48 8 -37 6 3 3 -4 -6 -17
-13 -18 -14 -27 -5 -38 9 -10 9 -15 -1 -21 -10 -6 -9 -10 3 -14 9 -4 13 -13
10 -22 -3 -8 -11 -12 -18 -8 -6 4 -5 -1 3 -11 12 -14 12 -19 2 -25 -10 -6 -8
-10 5 -15 12 -5 14 -10 6 -18 -15 -15 8 -40 26 -26 8 7 12 7 12 0 0 -6 7 -9
15 -6 8 4 12 11 9 18 -3 6 2 2 11 -9 12 -14 19 -16 22 -7 3 6 10 9 16 5 18
-11 38 -12 31 -2 -3 5 -1 9 5 9 5 0 11 -6 14 -12 12 -32 22 42 21 152 -1 110
-9 156 -21 122 -4 -10 -9 -8 -19 5 -13 17 -14 17 -7 -2 6 -17 5 -18 -9 -7 -13
10 -17 10 -21 0 -4 -10 -6 -10 -6 0 -1 6 -6 12 -12 12 -5 0 -7 -6 -3 -12 4 -7
-3 -4 -16 7 l-23 20 13 -25z m-50 -30 c0 -5 -5 -10 -11 -10 -5 0 -7 5 -4 10 3
6 8 10 11 10 2 0 4 -4 4 -10z"/>
<path d="M1366 2697 c2 -18 6 -38 9 -45 3 -7 1 -11 -4 -8 -5 3 -12 -1 -15 -10
-3 -8 -2 -12 4 -9 6 3 10 1 10 -4 0 -6 -6 -11 -12 -11 -7 0 -5 -5 5 -11 12 -7
15 -15 8 -26 -4 -9 -6 -25 -3 -36 4 -15 2 -18 -9 -12 -8 5 -5 -1 5 -13 19 -22
19 -22 0 -22 -16 0 -16 -2 -4 -10 12 -8 12 -10 -3 -16 -9 -3 -14 -10 -11 -15
3 -5 1 -9 -5 -9 -5 0 -12 6 -14 13 -4 9 -6 9 -6 -1 -1 -9 -6 -10 -19 -3 -11 6
-24 6 -32 1 -9 -5 -19 -5 -27 2 -7 6 -13 7 -13 2 0 -15 -61 -8 -71 7 -7 11 -9
11 -9 -3 0 -11 -6 -15 -20 -11 -11 3 -20 0 -20 -6 0 -6 6 -11 13 -11 7 0 8 -3
2 -8 -14 -10 -18 -49 -5 -57 8 -5 7 -11 -1 -22 -10 -12 -10 -16 2 -24 11 -7
10 -9 -5 -9 -19 0 -19 0 -1 -13 14 -11 15 -16 5 -22 -9 -6 -11 -4 -5 5 6 9 4
11 -4 5 -9 -5 -9 -11 -3 -17 6 -6 8 -17 5 -26 -4 -9 -2 -13 4 -9 7 4 10 0 8
-10 -2 -10 -4 -22 -4 -26 -1 -5 -5 -5 -11 -2 -5 3 -10 1 -10 -4 0 -6 -10 -9
-22 -7 -13 2 -29 -1 -35 -6 -8 -7 -13 -7 -13 -1 0 13 -32 13 -47 0 -9 -6 -13
-6 -13 3 0 9 -4 9 -17 -1 -14 -12 -16 -12 -8 0 6 11 5 12 -6 5 -21 -13 -39
-14 -39 -2 0 7 -5 6 -14 -1 -8 -7 -15 -8 -18 -2 -1 5 -12 3 -23 -6 -17 -13
-17 -15 -2 -10 14 6 16 3 8 -12 -6 -10 -7 -21 -4 -25 3 -3 0 -6 -8 -6 -12 0
-11 -2 1 -10 13 -9 13 -11 0 -20 -11 -7 -12 -10 -2 -10 8 0 12 -6 9 -12 -2 -7
0 -22 6 -33 9 -18 8 -18 -6 -7 -13 11 -15 10 -12 -5 1 -10 8 -17 16 -15 10 3
10 0 0 -12 -7 -9 -18 -13 -25 -9 -8 5 -8 3 1 -8 10 -12 2 -14 -52 -14 -35 0
-61 3 -58 8 2 4 -1 7 -6 7 -6 0 -11 -4 -11 -10 0 -5 -7 -7 -15 -4 -8 4 -12 11
-9 18 3 6 -2 2 -10 -8 -9 -11 -16 -15 -16 -10 0 5 -9 10 -20 10 -11 0 -20 -7
-20 -14 0 -8 -6 -12 -13 -9 -9 3 -12 -4 -11 -23 1 -16 4 -32 7 -37 3 -5 2 -15
-3 -23 -5 -8 -5 -21 1 -31 6 -11 5 -20 -1 -24 -7 -4 -7 -13 0 -26 6 -10 8 -19
4 -19 -3 0 -2 -6 4 -13 9 -10 7 -19 -5 -37 -9 -13 -11 -20 -5 -16 7 4 12 2 12
-3 0 -6 -5 -11 -11 -11 -5 0 -7 -4 -4 -10 3 -5 1 -10 -4 -10 -6 0 -11 6 -11
13 0 8 -4 7 -10 -3 -6 -10 -10 -11 -10 -2 0 6 -5 12 -11 12 -5 0 -8 -4 -5 -8
2 -4 -4 -8 -15 -8 -10 0 -19 3 -19 6 0 3 -9 6 -19 6 -11 0 -17 -4 -15 -8 3 -4
0 -8 -5 -8 -6 0 -11 6 -11 13 0 8 -4 7 -10 -3 -8 -12 -10 -12 -10 -1 0 11 -3
11 -17 0 -13 -11 -17 -11 -20 -1 -3 6 -9 12 -14 12 -6 0 -7 -5 -3 -12 5 -7 3
-8 -6 -3 -18 11 -28 -12 -23 -52 3 -21 1 -33 -4 -30 -5 4 -10 -1 -10 -9 0 -9
6 -13 15 -9 12 4 13 3 2 -10 -7 -8 -9 -15 -4 -15 4 0 3 -5 -3 -11 -12 -12 -6
-42 6 -34 4 2 8 -2 8 -9 0 -8 -5 -12 -12 -10 -6 3 -11 -4 -11 -15 0 -11 4 -17
9 -14 5 3 7 0 3 -8 -3 -8 -9 -22 -12 -31 -7 -21 -24 -24 -24 -5 0 7 -3 8 -8 2
-9 -13 -72 -13 -72 0 0 6 -3 6 -8 0 -9 -14 -65 -13 -74 0 -5 6 -8 6 -8 -2 0
-6 -8 -9 -19 -6 -10 3 -22 -1 -26 -8 -5 -8 -4 -10 3 -5 8 5 10 2 6 -8 -3 -9
-11 -13 -16 -10 -6 4 -6 0 0 -13 7 -12 7 -25 1 -36 -8 -14 -7 -15 8 -10 16 6
16 5 5 -9 -7 -9 -12 -22 -11 -30 3 -28 -1 -39 -13 -32 -7 4 -10 4 -6 -1 4 -4
3 -14 -3 -22 -9 -10 -8 -13 2 -13 12 0 12 -2 0 -9 -8 -5 -9 -11 -3 -15 6 -3 8
-16 4 -28 -3 -14 -2 -19 6 -14 11 6 16 -5 13 -26 -1 -9 41 -4 58 7 10 5 12 4
7 -3 -10 -16 7 -15 23 1 11 10 13 10 7 0 -5 -8 -1 -13 9 -13 10 0 13 5 9 13
-6 9 -5 9 8 0 8 -7 18 -10 21 -6 4 3 14 0 24 -8 11 -9 14 -10 9 -1 -4 7 -1 12
9 12 10 0 13 -5 9 -12 -5 -7 -3 -8 7 -2 8 4 24 9 36 10 17 1 20 -2 13 -12 -8
-8 -7 -13 1 -16 9 -3 9 -9 -1 -27 -6 -13 -8 -21 -2 -17 5 3 13 -1 16 -10 3 -8
2 -13 -3 -10 -5 3 -11 -4 -14 -15 -4 -15 -2 -19 8 -15 9 3 12 0 8 -9 -3 -8
-10 -12 -17 -8 -6 4 -6 0 2 -9 10 -12 10 -18 1 -23 -8 -6 -8 -9 1 -15 9 -6 9
-12 0 -30 -7 -12 -8 -20 -2 -16 5 3 13 -1 16 -10 3 -8 2 -13 -3 -10 -5 3 -11
-4 -14 -15 -4 -15 -2 -19 8 -15 9 3 12 0 8 -9 -3 -8 -10 -12 -16 -8 -6 4 -7 1
-2 -8 13 -20 13 -69 1 -69 -6 0 -5 -4 3 -9 9 -6 10 -11 2 -15 -14 -9 -14 -26
0 -26 5 0 7 5 3 12 -4 7 -3 8 5 4 9 -6 9 -11 0 -22 -6 -8 -8 -14 -3 -14 4 0 3
-5 -3 -11 -12 -12 -6 -42 6 -34 4 2 8 -2 8 -9 0 -8 -5 -12 -12 -10 -6 3 -11
-4 -11 -15 0 -11 4 -17 8 -15 9 6 5 -32 -4 -42 -9 -8 2 -35 11 -29 4 2 8 -2 8
-9 0 -8 -5 -12 -12 -10 -6 3 -11 -5 -11 -16 0 -14 5 -19 15 -15 11 4 12 3 1
-10 -7 -8 -9 -15 -4 -15 4 0 3 -5 -3 -11 -12 -12 -6 -42 6 -34 4 2 8 -2 8 -9
0 -8 -5 -12 -12 -10 -6 3 -11 -4 -11 -15 0 -11 4 -17 8 -15 9 6 5 -32 -4 -42
-9 -8 2 -35 11 -29 4 2 8 -2 8 -9 0 -8 -5 -12 -12 -10 -6 3 -11 -5 -11 -16 0
-14 5 -19 15 -15 11 4 12 3 1 -10 -7 -8 -9 -15 -5 -15 4 0 3 -6 -1 -12 -11
-15 -11 -38 -1 -55 4 -6 3 -14 -3 -18 -7 -4 -6 -11 2 -19 20 -19 2342 -17
2360 3 10 11 10 14 1 18 -7 3 -13 9 -13 14 0 6 4 8 8 5 4 -2 8 6 8 20 0 13 -5
24 -10 24 -6 0 -4 5 4 10 10 6 11 10 3 10 -7 0 -13 5 -13 11 0 5 4 8 8 5 15
-9 6 35 -9 46 -11 8 -11 9 3 5 12 -4 16 0 15 14 -1 10 -5 19 -10 19 -4 0 -5 6
0 12 10 17 13 38 4 38 -14 0 -6 40 9 41 10 0 9 3 -5 9 -13 6 -15 9 -5 9 13 1
13 2 0 11 -13 9 -13 11 0 20 12 8 13 11 1 19 -11 7 -11 9 0 14 10 4 10 6 2 6
-7 1 -13 6 -13 12 0 5 4 8 8 5 4 -2 8 4 8 14 0 10 -4 16 -9 13 -5 -3 -4 4 2
16 9 16 9 21 0 21 -8 0 -8 5 2 16 10 13 10 17 -2 25 -10 6 -11 11 -3 17 14 9
14 42 0 42 -6 0 -4 5 4 10 10 6 11 10 3 10 -7 0 -13 5 -13 11 0 5 4 8 8 5 15
-9 6 35 -9 46 -11 8 -11 9 3 5 12 -4 16 0 15 14 -1 10 -5 19 -10 19 -4 0 -5 6
0 13 10 16 13 37 4 37 -14 0 -6 40 9 41 10 0 9 3 -5 9 -13 6 -15 9 -5 9 13 1
13 2 0 11 -13 9 -13 11 0 20 12 8 13 11 1 19 -11 7 -11 9 0 14 10 4 10 6 2 6
-7 1 -13 6 -13 12 0 5 4 8 8 5 4 -2 8 4 8 14 0 10 -4 16 -9 13 -5 -3 -4 4 2
16 9 16 9 21 0 21 -8 0 -8 5 2 16 10 13 10 17 -1 24 -10 6 -7 14 15 34 29 27
41 33 30 16 -7 -12 23 -9 44 4 10 7 12 6 6 -4 -6 -10 -4 -12 7 -7 9 3 21 0 27
-6 9 -9 11 -8 6 3 -4 11 1 16 14 16 11 0 17 -4 15 -8 -6 -10 32 -5 42 5 11 10
24 8 24 -4 0 -5 -5 -7 -12 -3 -7 4 -8 3 -4 -5 6 -9 14 -6 30 11 12 13 21 26
19 31 -2 4 4 7 14 8 16 0 16 1 -2 9 -11 5 -14 9 -6 9 11 1 11 4 0 18 -12 15
-12 16 5 9 20 -7 20 -7 0 15 -10 12 -13 19 -6 15 6 -4 12 -2 12 3 0 6 -6 11
-12 11 -9 0 -8 4 2 10 13 9 13 10 0 10 -9 0 -11 3 -5 8 15 11 11 112 -4 122
-21 12 -91 10 -91 -3 0 -8 -3 -7 -9 2 -5 8 -18 12 -29 9 -10 -3 -27 -1 -37 5
-13 7 -16 6 -11 -2 4 -6 2 -11 -3 -11 -6 0 -11 6 -11 13 0 7 -7 4 -15 -7 -8
-11 -15 -14 -15 -8 0 7 -9 12 -19 12 -23 0 -32 19 -19 43 6 11 5 17 -3 17 -8
0 -7 5 2 17 11 13 11 17 2 20 -7 3 -13 9 -13 14 0 6 4 8 8 5 4 -2 8 4 8 14 0
10 -4 16 -8 14 -4 -3 -4 6 2 20 7 18 6 26 -1 26 -8 0 -7 5 1 15 8 10 9 15 2
15 -6 0 -9 7 -6 15 4 8 11 12 17 8 6 -3 7 -1 3 6 -4 6 -12 9 -17 6 -5 -4 -9 1
-9 11 0 13 -3 14 -15 4 -8 -7 -15 -8 -15 -3 0 5 -9 9 -19 9 -11 0 -17 -4 -15
-8 3 -4 0 -8 -5 -8 -6 0 -11 6 -11 13 0 8 -4 7 -10 -3 -8 -12 -10 -12 -10 -1
0 11 -3 11 -15 1 -12 -10 -15 -10 -15 0 0 10 -3 10 -15 0 -12 -10 -15 -10 -15
0 0 7 -7 10 -16 6 -9 -4 -23 -1 -31 6 -8 6 -13 7 -12 2 4 -20 -2 -26 -15 -15
-10 9 -12 20 -6 42 5 16 5 27 0 24 -12 -8 -6 21 8 38 10 12 10 17 1 23 -7 4
-9 3 -6 -3 3 -5 0 -10 -8 -10 -11 0 -12 4 -4 13 6 7 8 17 5 23 -4 5 2 12 11
14 15 4 15 5 -2 6 -17 1 -18 3 -5 11 12 8 12 10 -5 11 l-20 0 20 9 c11 5 14 9
8 9 -7 1 -13 6 -13 12 0 5 6 7 13 3 9 -5 9 -4 0 6 -10 11 -10 17 3 31 12 13
12 19 3 25 -7 4 -10 3 -6 -3 3 -5 0 -10 -8 -10 -11 0 -12 4 -4 13 6 7 9 37 7
67 -2 34 2 60 10 70 10 12 10 17 1 23 -7 4 -9 3 -6 -3 3 -5 0 -10 -8 -10 -11
0 -12 4 -4 13 6 7 8 17 5 23 -4 5 2 12 11 14 15 4 15 5 -2 6 -17 1 -18 3 -5
11 12 8 12 10 -5 11 l-20 0 20 9 c11 5 14 9 8 9 -7 1 -13 6 -13 12 0 5 6 7 13
3 9 -5 9 -4 0 6 -10 11 -10 17 3 31 12 13 12 19 3 25 -7 4 -10 3 -6 -3 3 -5 0
-10 -8 -10 -9 0 -11 4 -6 11 5 6 11 40 13 76 l3 66 -68 2 c-38 2 -74 -2 -81
-7 -9 -8 -13 -7 -13 4 0 8 5 11 10 8 6 -4 7 -1 3 6 -6 9 -13 8 -29 -6 -11 -10
-18 -13 -15 -8 4 6 -10 10 -33 11 -21 0 -39 -5 -39 -10 0 -7 -3 -7 -8 0 -5 9
-11 8 -20 -2 -7 -8 -8 -14 -2 -14 5 0 10 -5 10 -11 0 -5 -6 -7 -12 -3 -8 5 -7
0 2 -11 9 -11 10 -16 3 -11 -7 4 -13 3 -13 -3 0 -5 4 -12 9 -15 12 -8 8 -30
-9 -52 -8 -10 -10 -15 -3 -11 6 4 14 3 17 -2 4 -5 2 -12 -4 -16 -5 -3 -10 -11
-10 -16 0 -6 4 -8 9 -5 11 7 9 -13 -2 -31 -5 -8 -4 -13 2 -13 6 0 3 -9 -7 -20
-9 -11 -18 -16 -20 -10 -2 5 -8 10 -13 10 -6 0 -8 -4 -5 -9 7 -11 -13 -9 -31
2 -8 5 -13 3 -13 -5 0 -10 -2 -10 -9 1 -7 11 -9 11 -14 0 -4 -12 -7 -11 -16 1
-10 13 -11 13 -11 0 0 -13 -2 -13 -9 -1 -8 12 -12 12 -24 2 -12 -9 -16 -9 -19
1 -4 10 -9 10 -23 -2 -17 -14 -17 -13 -10 9 5 16 4 21 -4 17 -6 -4 -11 -2 -11
3 0 6 3 11 8 11 9 0 7 74 -3 89 -3 6 0 11 7 12 7 0 4 4 -7 9 -18 8 -18 9 -2 9
14 1 16 5 7 20 -13 26 -13 34 3 25 8 -5 8 -2 -2 9 -9 12 -10 17 -2 17 8 0 9 5
2 19 -6 10 -8 20 -6 22 2 3 -12 4 -31 4 -18 0 -34 -2 -34 -5 0 -11 -70 -2 -85
10 -13 11 -15 10 -10 -1 4 -10 -3 -14 -25 -14 -16 0 -30 4 -30 8 0 5 -4 5 -10
2 -5 -3 -10 -1 -10 5 0 6 -5 8 -10 5 -13 -8 -8 18 5 27 6 5 6 8 -1 8 -12 0
-12 29 1 49 6 10 4 12 -6 6 -12 -8 -12 -6 0 8 10 13 10 17 1 17 -9 0 -10 3 -1
13 8 10 7 17 -2 26 -9 9 -9 14 2 20 10 7 10 10 1 16 -9 6 -9 10 1 16 12 7 12
9 0 9 -10 0 -11 3 -2 14 18 21 -13 43 -36 25 -11 -10 -14 -10 -9 -1 4 6 3 12
-1 12 -5 0 -15 -6 -22 -12 -11 -10 -13 -10 -7 0 9 15 1 15 -25 2 -13 -8 -19
-7 -19 0 0 7 -6 7 -21 0 -14 -8 -24 -8 -32 -1 -8 6 -18 6 -27 1 -8 -5 -18 -6
-23 -3 -15 9 -57 11 -51 2 7 -12 -3 -11 -25 1 -16 8 -18 5 -15 -23z m309 13
c3 -6 -1 -7 -9 -4 -18 7 -21 14 -7 14 6 0 13 -4 16 -10z m-1065 -850 c0 -5 -5
-10 -11 -10 -5 0 -7 5 -4 10 3 6 8 10 11 10 2 0 4 -4 4 -10z"/>
<path d="M2552 2583 c-6 -3 -9 -10 -5 -16 4 -7 0 -8 -13 -3 -15 6 -16 5 -7 -5
10 -10 10 -16 0 -28 -8 -10 -8 -12 -1 -8 7 4 14 0 18 -8 3 -8 0 -17 -6 -21 -7
-5 -8 -2 -3 7 8 12 6 12 -8 0 -18 -14 -24 -26 -8 -17 5 3 15 -2 22 -11 8 -9 9
-14 3 -10 -7 4 -15 0 -18 -9 -3 -8 -2 -13 3 -10 5 3 12 -1 15 -10 3 -8 2 -12
-4 -9 -12 7 -30 -27 -30 -59 0 -18 5 -26 17 -26 9 0 13 -3 10 -7 -4 -3 -1 -13
6 -21 9 -13 9 -14 0 -8 -7 4 -13 2 -13 -3 0 -6 10 -11 23 -11 18 0 19 -2 7
-10 -8 -5 -10 -10 -4 -10 5 0 15 5 22 12 7 7 12 8 12 4 0 -5 6 -3 14 3 9 7 17
8 20 2 3 -5 16 -7 29 -4 18 4 19 3 7 -6 -8 -6 -10 -11 -4 -11 6 0 14 3 18 8
11 11 50 9 58 -3 5 -6 8 -1 8 10 1 19 1 19 11 2 7 -12 15 -15 22 -9 7 5 22 8
34 7 13 -1 21 1 18 3 -3 3 0 11 6 18 6 7 6 14 0 18 -5 3 -7 16 -3 28 4 16 2
19 -9 13 -11 -6 -12 -5 -1 6 6 7 12 19 12 27 0 8 -5 10 -12 6 -10 -6 -10 -4 0
7 15 17 16 43 0 33 -6 -4 -8 -3 -5 3 12 20 15 63 4 63 -6 0 -2 7 9 15 12 10
14 14 4 13 -8 -2 -15 3 -16 10 -1 6 -2 16 -3 22 0 5 -8 6 -18 3 -12 -5 -14 -3
-8 7 6 10 4 11 -6 4 -24 -14 -51 -16 -43 -2 6 10 4 11 -7 1 -7 -7 -17 -13 -22
-13 -4 0 -5 6 -1 13 6 9 4 9 -8 -1 -13 -10 -17 -10 -21 0 -4 10 -6 10 -6 -1
-1 -11 -4 -11 -18 0 -11 10 -14 10 -9 2 4 -7 3 -13 -3 -13 -5 0 -12 6 -14 13
-4 8 -6 9 -6 0 -1 -8 -10 -9 -28 -4 -16 4 -34 6 -41 4z"/>
<path d="M3021 2583 c-1 -7 -7 -10 -15 -7 -8 3 -17 0 -21 -5 -3 -6 -11 -9 -16
-6 -5 4 -18 8 -29 10 -16 3 -19 1 -11 -12 5 -9 5 -29 0 -46 -7 -25 -6 -28 9
-23 15 5 15 4 -1 -8 -18 -14 -18 -15 0 -25 14 -8 15 -10 3 -11 -12 0 -15 -8
-12 -36 4 -29 2 -35 -9 -30 -8 4 -5 0 5 -8 20 -16 20 -16 0 -17 -18 0 -18 -1
1 -9 13 -6 15 -9 5 -9 -13 -1 -13 -2 0 -11 12 -8 12 -10 1 -10 -10 0 -11 -3
-2 -13 6 -8 8 -16 6 -19 -3 -3 6 -3 21 0 19 3 25 1 20 -6 -5 -8 -2 -10 8 -6 9
3 13 11 9 17 -4 6 -1 7 8 1 8 -5 23 -7 34 -6 17 2 17 1 5 -7 -9 -7 -10 -11 -3
-11 6 0 15 5 18 10 4 6 10 8 15 5 5 -3 11 -1 14 4 4 6 17 4 33 -4 20 -10 31
-11 40 -3 7 6 13 7 13 4 0 -4 9 -2 19 4 14 7 21 6 24 -3 3 -7 6 -4 6 6 1 10 5
15 11 12 5 -3 3 9 -5 28 -11 26 -11 37 -3 45 7 7 8 12 4 12 -5 0 -3 7 4 15 10
12 9 16 -5 21 -13 5 -14 9 -3 15 11 7 10 9 -1 9 -11 0 -9 5 5 22 10 12 14 18
7 15 -6 -4 -14 -3 -18 3 -3 5 0 10 7 10 10 0 10 2 -1 9 -9 6 -10 11 -2 15 6 4
11 12 11 17 0 6 -4 8 -9 5 -5 -3 -8 2 -7 12 0 9 -5 16 -11 15 -7 -2 -13 3 -13
10 0 8 -4 7 -10 -3 -8 -12 -10 -12 -10 -1 0 11 -4 10 -19 -3 -17 -16 -20 -16
-35 -1 -9 9 -16 12 -16 6 0 -13 -22 -10 -32 4 -5 6 -8 5 -8 -2 0 -7 -6 -13
-14 -13 -8 0 -17 6 -19 13 -4 9 -6 9 -6 0z"/>
<path d="M3364 2558 c-2 -4 -13 -5 -24 -3 -17 3 -19 1 -10 -16 8 -13 8 -19 0
-19 -7 0 -7 -7 1 -21 6 -12 7 -19 1 -15 -5 3 -12 -1 -16 -9 -3 -8 -1 -17 4
-20 6 -4 10 -11 10 -16 0 -6 -4 -7 -10 -4 -6 3 -7 -1 -4 -9 3 -9 11 -13 18 -9
6 4 5 -1 -2 -10 -8 -9 -11 -25 -7 -38 6 -16 4 -20 -6 -13 -11 6 -11 4 0 -10
13 -15 13 -19 0 -27 -11 -7 -10 -9 6 -9 17 0 17 -2 5 -10 -11 -7 -5 -10 25
-10 30 0 36 -3 25 -10 -9 -6 -10 -10 -3 -10 6 0 14 4 17 8 6 11 57 9 75 -3 10
-5 12 -4 7 3 -4 7 -1 12 9 12 10 0 14 -5 9 -12 -5 -10 -4 -10 6 -1 17 16 21
295 5 285 -17 -11 -46 -12 -40 -2 3 6 -1 7 -9 4 -9 -3 -13 -11 -9 -18 4 -8 2
-8 -7 1 -7 6 -19 9 -28 6 -8 -4 -13 -2 -9 3 3 5 -3 10 -14 10 -11 0 -22 -4
-25 -8z"/>
<path d="M2942 2161 c-8 -4 -13 -11 -13 -15 4 -26 -1 -46 -9 -41 -5 3 -10 4
-10 0 0 -3 10 -10 23 -15 20 -8 20 -9 2 -10 -20 -1 -20 -1 -1 -15 15 -11 16
-15 5 -15 -11 0 -14 -9 -11 -36 4 -29 2 -35 -9 -29 -8 5 -3 -4 10 -18 l24 -27
-23 -8 c-20 -7 -21 -10 -6 -15 10 -4 14 -12 10 -18 -11 -18 16 -57 36 -52 10
3 21 0 25 -7 5 -8 13 -6 28 7 11 10 17 13 14 7 -4 -7 0 -14 8 -17 10 -4 12 -1
9 11 -5 14 -3 13 10 -2 10 -12 16 -15 16 -7 0 9 8 11 26 7 18 -5 24 -3 19 5
-5 8 -2 8 11 1 11 -5 25 -7 33 -4 9 3 11 0 6 -9 -6 -11 -5 -12 5 -2 7 7 14 23
15 35 1 13 7 22 12 21 5 -1 14 7 21 18 7 10 9 19 5 18 -20 -3 -27 2 -13 11 12
8 12 10 1 10 -11 0 -11 3 -1 15 9 11 9 15 1 15 -9 0 -9 5 -1 20 6 11 8 26 3
33 -10 17 -11 47 -1 53 4 3 3 14 -3 26 -6 11 -7 18 -2 15 5 -3 9 3 9 14 0 12
-5 18 -13 15 -7 -3 -15 -1 -18 4 -4 7 -13 6 -26 0 -14 -8 -19 -7 -19 2 0 9 -3
9 -12 0 -13 -13 -32 -16 -24 -4 2 4 -4 8 -14 8 -10 0 -16 -4 -14 -8 3 -4 0 -8
-5 -8 -6 0 -11 6 -11 13 0 8 -4 7 -10 -3 -8 -12 -10 -12 -10 -1 0 11 -3 11
-17 0 -14 -12 -15 -12 -9 -1 7 11 4 12 -13 3 -16 -9 -21 -9 -21 1 0 9 -3 9
-12 0 -15 -15 -32 -16 -23 -2 7 12 4 12 -13 1z"/>
</g>
</svg>
