<?xml version="1.0" encoding="UTF-8"?>
<svg width="79px" height="67px" viewBox="0 0 79 67" xmlns="http://www.w3.org/2000/svg" xmlns:xlink="http://www.w3.org/1999/xlink" version="1.1">
 <!-- Generated by Pixelmator Pro 1.5.1 -->
 <g id="group">
  <path id="Path" d="M58.339 39.3 L52.938 39.3 52.938 33.899 47.706 33.899 47.706 29.679 47.711 29.679 47.711 24.28 47.712 24.28 47.712 18.602 42.034 18.602 42.034 23.941 37.41 23.941 37.41 18.371 32.012 18.371 32.012 12.801 26.273 12.801 26.273 18.371 20.872 18.371 20.872 23.941 15.35 23.941 15.35 28.329 10.455 28.329 10.455 33.899 5.223 33.899 5.223 39.3 0.16 39.3 0.16 45.039 5.513 45.039 5.513 66.306 10.07 66.306 11.42 66.306 46.865 66.306 49.566 66.306 52.773 66.306 52.773 45.039 58.34 45.039 58.34 39.3 Z M26.779 50.059 L31.505 50.059 31.505 59.892 26.779 59.892 Z M37.243 59.891 L37.243 44.7 34.711 44.7 34.711 44.657 23.571 44.657 23.571 44.7 21.04 44.7 21.04 59.891 11.419 59.891 11.419 45.038 11.585 45.038 11.585 39.637 16.649 39.637 16.649 34.067 21.881 34.067 21.881 29.679 26.776 29.679 26.776 24.109 31.336 24.109 31.336 29.679 36.279 29.679 36.279 35.249 41.511 35.249 41.511 39.637 46.912 39.637 46.912 44.869 46.864 44.869 46.864 59.891 Z" fill="#4bc0d9" fill-opacity="1" stroke="none"/>
  <path id="Path-1" d="M49.693 15.934 L55.418 15.934 55.418 21.659 49.693 21.659 Z" fill="#4bc0d9" fill-opacity="1" stroke="none"/>
  <path id="Path-2" d="M57.619 15.934 L63.344 15.934 63.344 21.659 57.619 21.659 Z" fill="#4bc0d9" fill-opacity="1" stroke="none"/>
  <path id="Path-3" d="M65.27 15.934 L70.995 15.934 70.995 21.659 65.27 21.659 Z" fill="#4bc0d9" fill-opacity="1" stroke="none"/>
  <path id="Path-4" d="M65.27 8.007 L70.995 8.007 70.995 13.732 65.27 13.732 Z" fill="#4bc0d9" fill-opacity="1" stroke="none"/>
  <path id="Path-5" d="M73.197 8.007 L78.922 8.007 78.922 13.732 73.197 13.732 Z" fill="#4bc0d9" fill-opacity="1" stroke="none"/>
  <path id="Path-6" d="M73.197 0.301 L78.922 0.301 78.922 6.026 73.197 6.026 Z" fill="#4bc0d9" fill-opacity="1" stroke="none"/>
  <path id="Path-7" d="M57.619 24.42 L63.344 24.42 63.344 30.145 57.619 30.145 Z" fill="#4bc0d9" fill-opacity="1" stroke="none"/>
 </g>
</svg>
