<?xml version="1.0" encoding="UTF-8"?>
<svg width="317px" height="51px" viewBox="0 0 317 51" xmlns="http://www.w3.org/2000/svg" xmlns:xlink="http://www.w3.org/1999/xlink" version="1.1">
 <!-- Generated by Pixelmator Pro 1.5.1 -->
 <g id="group">
  <path id="Path" d="M55.627 18.715 C57.877 21.093 59.002 24.319 59.002 28.39 L59.002 50.118 49.167 50.118 49.167 31.283 C49.167 29.055 48.566 27.32 47.367 26.076 46.167 24.833 44.539 24.212 42.482 24.212 40.125 24.255 38.26 25.091 36.889 26.719 35.517 28.348 34.832 30.447 34.832 33.018 L34.832 50.118 24.997 50.118 24.997 31.283 C24.997 29.097 24.408 27.373 23.229 26.108 22.05 24.844 20.433 24.212 18.375 24.212 16.018 24.255 14.143 25.091 12.75 26.719 11.357 28.348 10.661 30.447 10.661 33.018 L10.661 50.118 0.761 50.118 0.761 15.534 10.661 15.534 10.661 21.513 C13.06 17.357 16.961 15.235 22.36 15.149 25.274 15.149 27.738 15.846 29.753 17.238 31.767 18.631 33.202 20.592 34.06 23.12 35.174 20.507 36.792 18.535 38.914 17.206 41.035 15.878 43.575 15.192 46.532 15.149 50.344 15.147 53.377 16.336 55.627 18.715 Z" fill="#5971b7" fill-opacity="1" stroke="none"/>
  <path id="Path-1" d="M73.111 1.712 C74.117 2.74 74.622 4.069 74.622 5.697 74.622 7.326 74.118 8.654 73.111 9.683 72.104 10.711 70.807 11.225 69.222 11.225 67.679 11.225 66.404 10.701 65.397 9.65 64.389 8.6 63.886 7.282 63.886 5.696 63.886 4.068 64.389 2.739 65.397 1.711 66.403 0.682 67.679 0.168 69.222 0.168 70.807 0.169 72.104 0.683 73.111 1.712 Z M64.336 15.533 L74.236 15.533 74.236 50.117 64.336 50.117 Z" fill="#5971b7" fill-opacity="1" stroke="none"/>
  <path id="Path-2" d="M95.899 23.632 C93.413 23.632 91.388 24.479 89.824 26.172 88.259 27.865 87.478 30.104 87.478 32.889 87.478 35.675 88.249 37.935 89.792 39.671 91.335 41.407 93.306 42.275 95.706 42.275 99.306 42.275 101.984 40.925 103.742 38.225 L110.556 42.853 C109.098 45.296 107.053 47.182 104.417 48.51 101.781 49.839 98.706 50.503 95.192 50.503 91.721 50.503 88.656 49.775 86 48.317 83.342 46.86 81.275 44.803 79.796 42.146 78.317 39.489 77.578 36.425 77.578 32.954 77.578 29.44 78.317 26.344 79.796 23.665 81.275 20.987 83.353 18.908 86.032 17.43 88.71 15.951 91.806 15.212 95.321 15.212 98.621 15.212 101.557 15.845 104.128 17.108 106.699 18.372 108.756 20.161 110.299 22.475 L103.613 27.296 C101.641 24.854 99.069 23.632 95.899 23.632 Z" fill="#5971b7" fill-opacity="1" stroke="none"/>
  <path id="Path-3" d="M128.104 16.883 C130.033 15.769 132.283 15.191 134.854 15.147 L134.854 24.468 C134.51 24.426 133.996 24.404 133.311 24.404 130.268 24.404 127.857 25.23 126.079 26.879 124.3 28.529 123.412 30.726 123.412 33.468 L123.412 50.117 113.512 50.117 113.512 15.533 123.412 15.533 123.412 21.768 C124.611 19.626 126.175 17.998 128.104 16.883 Z" fill="#5971b7" fill-opacity="1" stroke="none"/>
  <path id="Path-4" d="M162.334 17.397 C165.141 18.855 167.316 20.912 168.859 23.568 170.402 26.226 171.173 29.311 171.173 32.825 171.173 36.296 170.402 39.371 168.859 42.05 167.317 44.729 165.141 46.807 162.334 48.285 159.527 49.764 156.302 50.503 152.66 50.503 148.973 50.503 145.727 49.764 142.921 48.285 140.114 46.806 137.939 44.728 136.397 42.05 134.854 39.372 134.083 36.297 134.083 32.825 134.083 29.311 134.854 26.226 136.397 23.568 137.939 20.911 140.114 18.854 142.921 17.397 145.728 15.94 148.974 15.211 152.66 15.211 156.301 15.211 159.527 15.94 162.334 17.397 Z M146.392 26.075 C144.785 27.833 143.981 30.125 143.981 32.953 143.981 35.781 144.784 38.075 146.392 39.831 147.999 41.588 150.088 42.466 152.66 42.466 155.188 42.466 157.256 41.588 158.863 39.831 160.47 38.074 161.274 35.781 161.274 32.953 161.274 30.125 160.471 27.832 158.863 26.075 157.256 24.318 155.188 23.439 152.66 23.439 150.088 23.439 147.999 24.318 146.392 26.075 Z" fill="#5971b7" fill-opacity="1" stroke="none"/>
 </g>
 <g id="group-1">
  <path id="Path-5" d="M190.963 22.99 C189.12 22.412 187.47 22.122 186.013 22.122 184.813 22.122 183.848 22.337 183.12 22.765 182.391 23.194 182.027 23.837 182.027 24.693 182.027 25.636 182.519 26.364 183.506 26.879 184.491 27.394 186.098 27.972 188.327 28.615 190.77 29.344 192.784 30.061 194.37 30.768 195.955 31.476 197.327 32.526 198.484 33.918 199.641 35.312 200.219 37.144 200.219 39.415 200.219 42.844 198.902 45.512 196.266 47.418 193.63 49.326 190.255 50.279 186.141 50.279 183.312 50.279 180.59 49.861 177.977 49.026 175.362 48.19 173.091 47.001 171.163 45.458 L174.377 38.772 C176.134 40.144 178.095 41.205 180.259 41.954 182.422 42.704 184.469 43.079 186.398 43.079 187.727 43.079 188.787 42.854 189.58 42.404 190.373 41.954 190.769 41.279 190.769 40.379 190.769 39.394 190.265 38.623 189.258 38.065 188.25 37.508 186.633 36.908 184.404 36.265 182.047 35.58 180.086 34.894 178.522 34.208 176.957 33.523 175.618 32.483 174.504 31.09 173.389 29.698 172.833 27.887 172.833 25.658 172.833 22.23 174.119 19.573 176.69 17.687 179.261 15.802 182.518 14.858 186.461 14.858 188.817 14.858 191.174 15.191 193.532 15.855 195.888 16.52 198.032 17.473 199.961 18.716 L196.554 25.466 C194.67 24.394 192.806 23.569 190.963 22.99 Z" fill="#4bc0d9" fill-opacity="1" stroke="none"/>
  <path id="Path-6" d="M235.094 18.523 C237.386 20.923 238.533 24.138 238.533 28.166 L238.533 49.894 228.634 49.894 228.634 31.059 C228.634 28.873 228.023 27.149 226.801 25.884 225.58 24.62 223.919 23.988 221.819 23.988 219.377 24.031 217.436 24.878 216.002 26.527 214.565 28.177 213.848 30.288 213.848 32.859 L213.848 49.894 203.949 49.894 203.949 2.196 213.848 2.196 213.848 21.417 C216.248 17.174 220.234 15.011 225.806 14.924 229.704 14.923 232.801 16.123 235.094 18.523 Z" fill="#4bc0d9" fill-opacity="1" stroke="none"/>
  <path id="Path-7" d="M272.956 19.809 C275.849 23.023 277.295 27.502 277.295 33.244 277.295 34.272 277.273 35.066 277.231 35.622 L252.418 35.622 C252.975 37.808 254.046 39.511 255.632 40.733 257.218 41.954 259.125 42.565 261.354 42.565 262.982 42.565 264.546 42.254 266.046 41.633 267.546 41.012 268.896 40.101 270.096 38.901 L275.303 44.172 C273.545 46.144 271.414 47.654 268.907 48.704 266.399 49.755 263.603 50.279 260.517 50.279 256.874 50.279 253.692 49.551 250.971 48.093 248.249 46.636 246.15 44.579 244.671 41.922 243.192 39.265 242.453 36.201 242.453 32.73 242.453 29.216 243.202 26.12 244.703 23.441 246.203 20.763 248.303 18.684 251.003 17.206 253.703 15.728 256.788 14.988 260.26 14.988 265.83 14.987 270.063 16.594 272.956 19.809 Z M267.974 29.772 C267.888 27.501 267.16 25.68 265.788 24.308 264.416 22.937 262.595 22.251 260.324 22.251 258.18 22.251 256.391 22.926 254.956 24.276 253.52 25.626 252.61 27.458 252.225 29.772 Z" fill="#4bc0d9" fill-opacity="1" stroke="none"/>
  <path id="Path-8" d="M316.314 2.195 L316.314 49.893 306.478 49.893 306.478 44.814 C305.235 46.614 303.692 47.975 301.85 48.896 300.007 49.818 297.907 50.278 295.55 50.278 292.292 50.278 289.432 49.539 286.968 48.06 284.503 46.581 282.597 44.492 281.247 41.792 279.896 39.092 279.222 35.985 279.222 32.471 279.222 29 279.886 25.936 281.215 23.279 282.542 20.622 284.429 18.565 286.871 17.108 289.314 15.652 292.121 14.922 295.293 14.922 300.178 14.922 303.906 16.744 306.478 20.386 L306.478 2.194 316.314 2.194 Z M304.068 39.64 C305.675 37.862 306.478 35.558 306.478 32.73 306.478 29.902 305.675 27.598 304.068 25.819 302.461 24.041 300.393 23.152 297.865 23.152 295.294 23.152 293.204 24.042 291.597 25.819 289.99 27.598 289.164 29.901 289.121 32.73 289.164 35.559 289.989 37.862 291.597 39.64 293.203 41.419 295.293 42.308 297.865 42.308 300.393 42.308 302.46 41.419 304.068 39.64 Z" fill="#4bc0d9" fill-opacity="1" stroke="none"/>
 </g>
</svg>
